Patient4_TMGait_0pt6_02_left_35_EMG.mot
version=1
nRows=27
nColumns=33
inDegrees=no
endheader
time	1LAddLong	2LGlutMax	3LGlutMed	4LIliopsoas	5LSemiMemb	6LBicFemLong	7LRecFem	8LVastMed	9LVastLat	10LGasMed	11LTibAnt	12lTibPost	13LPeroneusLong	14LSol	15LExtDigLong	16LFlexDigLong	17RAddLong	18RGlutMax	19RGlutMed	20RIliopsoas	21RSemiMemb	22RBicFemLong	23RRecFem	24RVastMed	25RVastLat	26RGasMed	27RTibAnt	28RTibPost	29RPeroneusLong	30RSol	31RExtDigLong	32RFlexDigLong
43.555	0.011444	-0.3421	-0.41184	0.005798	0.037384	0.019836	-0.17288	0.002136	-0.044708	0.26321	0.007629	-0.11917	-0.28549	0.13611	0.028229	-0.23422	-0.053711	0.14084	-0.10208	-0.059052	1.0143	0.25253	-0.049286	-0.13947	-0.21118	0.000305	-0.56946	-0.008392	0.076599	-0.086212	-0.009766	0.008087
43.556	0.019531	-0.27878	-0.40985	-0.003357	0.028381	0.095215	-0.19058	0.006409	-0.033417	0.18372	0.004425	0.55985	-0.22964	0.13336	0.022888	-0.055084	-0.034943	0.18662	-0.14694	-0.002441	0.78995	0.25024	0.035553	-0.23895	-0.45487	-0.006256	-1.3701	-0.004883	0.020294	-0.12543	-0.007019	0.005646
43.557	0.006714	-0.25803	-0.40573	-0.00473	-0.007935	0.12039	-0.17166	0.002899	-0.032043	0.14465	-0.000458	-0.12512	0.095978	0.2034	0.011902	0.28046	-0.019073	0.21515	-0.20584	0.054779	0.55573	0.25482	-0.034332	-0.36865	-0.4808	-0.007019	-1.0603	-0.010223	0.072937	-0.081177	-0.00412	-0.004272
43.558	0.005798	-0.24139	-0.39673	-0.002441	-0.010986	0.045776	-0.15976	0.006104	-0.028076	-0.097198	-0.001678	0.17227	0.16647	0.21225	0.005646	0.08194	-0.028687	0.17029	-0.22232	0.11322	0.41199	0.25925	-0.3891	-0.51025	-0.28412	-0.009155	-0.38422	-0.011902	0.11414	-0.018158	-0.00351	-0.002136
43.559	0.009766	-0.22781	-0.39764	-0.001068	-0.003052	-0.041046	-0.17654	0.002136	-0.021057	-0.050201	0.007477	0.25421	0.11948	-0.053253	-0.028992	0.019379	-0.001526	0.20721	-0.21866	0.11627	0.55664	0.16144	-0.42648	-0.39688	-0.07431	0	-0.15839	-0.006561	0.15106	-0.014648	-0.007324	0.002899
43.56	0.010681	-0.17563	-0.37186	0.006104	0.00351	-0.063629	-0.14648	-0.007935	-0.028534	-0.072174	0.007629	0.28397	0.016632	-0.24536	-0.046082	-0.53986	0.014038	0.067291	-0.06897	0.14191	0.71335	-0.032501	-0.50797	-0.2298	0.037689	-0.007782	-0.1535	-0.010223	0.16907	0.014496	-0.003052	-0.00885
43.561	0.009918	-0.13565	-0.33493	-0.002289	0.012665	-0.07431	-0.15076	0.004883	-0.026855	-0.076447	0.001984	-0.11368	0.007477	-0.15991	-0.023193	-0.17258	0.01236	0.028534	0.33844	0.062561	0.47211	-0.12344	-0.52292	-0.14236	0.29251	0.000458	-0.040436	-0.00824	0.1622	0.08667	-0.005646	-0.007629
43.562	0.018921	-0.11322	-0.30533	-0.000153	0.031891	-0.0914	-0.15991	-0.001068	-0.031128	-0.079498	0.002747	-0.077667	0.045013	-0.026245	0.001526	0.40314	0.013123	0.011597	0.26001	0.028076	0.31952	-0.18341	-0.16602	-0.006714	0.21027	0.004578	-0.59418	-0.013123	0.24216	0.10819	-0.00473	0.000458
43.563	0.019073	-0.11093	-0.26688	0.007477	0.028076	-0.06073	-0.13229	0.006866	-0.041962	-0.087585	0.007172	-0.063171	0.083008	0.040741	0.006561	0.007019	0.037842	-0.20798	-0.28473	0.015106	0.32745	-0.15076	0.035706	0.053406	0.23392	0.003662	-0.93689	-0.007172	0.25253	0.015564	-0.007629	0.005646
43.564	0.010834	-0.075684	-0.22614	-0.001221	0.036316	0.081635	-0.11612	0.015106	-0.053864	-0.21835	-0.000763	-0.06485	0.082703	0.15533	0.016937	0.016327	0.00885	-0.29419	-0.20248	0.016937	0.45334	-0.14679	0.14496	0.30548	0.44632	0.001373	-0.33798	-0.009308	0.1799	-0.038605	0.009766	0.006104
43.565	0.007782	-0.048676	-0.20477	0.016785	0.027466	0.044098	-0.12466	0.003967	-0.045776	-0.011902	-0.003815	-0.048065	0.058899	-0.020142	0.007629	0.00412	0.014648	-0.33798	-0.09613	0.008698	0.36118	-0.33859	0.10544	0.36026	0.53528	0.001831	-0.12909	-0.010986	0.12924	-0.086823	-0.001526	0.003662
43.566	0.001373	-0.012054	-0.16724	0.015259	0.0177	0.079346	-0.13031	0.00946	-0.052338	0.53146	0.009155	-0.04303	0.10605	-0.34058	0.007629	0.013275	0.047913	-0.33173	-0.13428	-0.014191	0.45303	-0.65964	-0.037842	0.19333	0.37949	-0.001831	-0.11765	-0.009766	0.012054	-0.049896	-0.004883	0.00946
43.567	0.011902	0.024261	-0.15106	0.006104	0.009613	0.042267	-0.13657	0.006256	-0.044556	1.1005	0.015106	-0.031586	0.11841	-0.37354	0.032196	0.01236	0.031433	-0.3093	-0.20721	0.006714	0.42755	-1.0291	-0.18158	0.014496	0.11734	-0.001984	-0.041504	-0.011444	-0.1004	-0.023651	-0.003052	-0.003662
43.568	0.012054	0.076294	-0.13306	0.008698	-0.026855	0.064392	-0.12253	0.001678	-0.037537	1.1404	0.006866	-0.018005	0.063171	-0.23453	0.041656	-0.007477	0.010681	-0.3067	0.008698	0.007172	0.30045	-0.86975	-0.22324	0.13367	-0.068817	-0.008545	0.081787	-0.008087	-0.11551	0.02182	-0.006866	-0.002594
43.569	0.018921	0.1445	-0.13184	0.001373	-0.030212	0.096436	-0.10239	0.005798	-0.039368	0.59296	0.00351	-0.018005	-0.10239	-0.22537	0.049591	-0.003815	-0.007172	-0.24841	0.29785	-0.014801	0.38574	-0.68802	-0.233	0.42801	-0.19669	-0.007324	0.19409	-0.009308	-0.071411	0.010223	-0.005035	-0.004272
43.57	0.014038	0.13626	-0.10468	0.020905	-0.025177	0.005035	-0.11002	0.00351	-0.039063	-0.06012	0.00473	-0.020599	-0.061035	-0.042114	0.040588	0.006714	-0.01709	-0.34271	0.13046	-0.11337	0.35309	-0.48813	-0.10071	0.37079	-0.28854	-0.001831	0.10346	-0.010223	0.063019	0.005341	-0.006561	-0.003967
43.571	0.005035	0.15854	-0.088196	0.018311	-0.003357	-0.005798	-0.1265	0.003815	-0.014343	-0.48157	0.006409	-0.013885	-0.060272	0.25101	0.011444	-0.006256	-0.01236	-0.41412	0.23605	-0.14771	0.49667	-0.32044	-0.086517	0.28397	-0.27817	-0.001373	-0.19318	-0.01236	0.10819	-0.002441	0	-0.00473
43.572	0.025177	0.18265	-0.08667	0.014954	-0.018768	-0.032349	-0.13886	-0.000458	0.014648	-1.1337	0.010529	0.00824	-0.091553	0.42374	-0.007782	-1.0866	0.005188	-0.42252	0.20889	-0.045471	0.46127	-0.36514	0.025024	0.079041	-0.17929	-0.001526	-0.1416	-0.00351	0.056305	0.030518	-0.00412	-0.003357
43.573	0.014191	0.19211	-0.068817	0.016022	-0.057983	-0.00885	-0.12421	-0.002136	0.030823	-0.95886	0.005188	-0.082703	0.00824	0.327	0.007629	-0.13229	0.008392	-0.33752	-0.09964	-0.049438	0.37949	-0.49408	0.19257	-0.085907	-0.15167	-0.002136	-0.032959	-0.010376	0.068665	0.05188	-0.005798	-0.007782
43.574	0.018463	0.22553	-0.065765	0.007019	-0.063782	0.024414	-0.13138	-0.005493	0.033875	-0.40894	0.00412	0.032806	-0.046082	0.42419	0.014191	-0.86548	0.015717	-0.27069	-0.15152	-0.058136	0.26306	-0.48447	0.13855	-0.1886	-0.24246	-0.001526	0.03418	-0.000153	0.13168	0.04303	-0.001373	-0.004883
43.575	0.021057	0.2359	-0.043182	0.009613	-0.012512	0.00885	-0.14603	-0.008087	0.045776	-0.045471	0.003357	0.007019	-0.15137	0.62714	0.001678	0.39871	0.025635	-0.33402	-0.25314	-0.023651	0.20721	-0.3595	0.18738	-0.42282	-0.20493	-0.00824	0.10452	-0.007172	0.12802	0.062408	-0.000305	0.001984
43.576	0.018311	0.19867	-0.017548	0.007477	0.14587	-0.029144	-0.11536	-0.012512	0.048676	0.4039	0.001526	0.23911	-0.14694	1.1095	-0.03067	-0.71259	0.020294	-0.33127	-0.5217	0.078583	0.10254	-0.28412	0.112	-0.25818	0.017853	-0.007935	0.10193	-0.003052	0.1384	0.031586	-0.001373	-0.009918
43.577	0.015717	0.19348	0.002899	-0.000458	0.066986	-0.077362	-0.086823	0.001678	0.031281	1.218	-0.010071	0.015564	-0.18127	1.8059	-0.052338	1.8497	0.000763	-0.32135	-0.75638	0.22278	0.10361	-0.20706	0.066986	0.11246	0.1326	-0.003204	0.11948	-0.008698	0.12619	-0.036774	0.00061	-0.016785
43.578	0.013275	0.20676	0.028076	0.004272	0.003204	-0.1503	-0.093689	-0.012665	0.037384	0.72357	-0.019531	-0.24429	-0.057831	1.6042	-0.088348	0.75256	-0.003357	-0.29114	-0.68039	0.17151	0.14191	-0.02182	0.1265	0.28839	0.001221	-0.005341	0.14145	-0.007324	0.054932	-0.054626	-0.00351	-0.00885
43.579	0.000763	0.16602	0.068359	-0.000916	-0.009308	-0.086975	-0.091705	-0.000153	0.041199	-0.11658	-0.009155	0.028534	0.077972	0.10346	-0.11902	-0.41458	-0.033722	-0.45059	-0.74493	0.10681	0.45425	0.075531	-0.054626	0.33173	0.21561	0.007019	0.094147	-0.007477	0.033875	-0.049744	-0.008087	-0.014038
43.58	0.002289	0.1976	0.084686	-0.002899	-0.001831	-0.085602	-0.075684	-0.001984	0.036774	-0.85037	-0.002136	0.080414	0.22888	-1.1748	-0.09613	0.031586	-0.080261	-0.52307	-1.0509	0.08316	0.4985	0.031433	-0.34821	0.3624	0.44235	-0.005798	0.12604	-0.006714	0.009003	-0.008698	-0.005493	-0.011902
43.581	0.006714	0.2005	0.1033	0.018616	-0.00473	-0.027771	-0.084229	-0.003357	0.037384	-0.75989	0.003815	-0.17975	0.20416	-2.5572	-0.06485	0.63858	-0.093231	-0.50903	-0.73349	0.046539	0.24307	-0.098572	-0.19974	-0.05249	0.35309	-0.004883	0.11017	-0.009766	0.02594	0.019989	-0.005493	-0.002441
